# xmcd CD database file
#
# Track frame offsets:
#	150
#	6934
#	25946
#	41076
#	56045
#	73475
#	95249
#	112909
#	123546
#	137538
#	158435
#	171689
#	190029
#	206323
#	216285
#	238887
#	256897
#	277989
#	302373
#	323575
#	341845
#
# Disc length: 4791 seconds
#
# Revision: 10
# Processed by: cddbd v1.5.2PL0 Copyright (c) Steve Scherf et al.
# Submitted via: CDex 1.77
#
DISCID=3612b515
DTITLE=Various Artist - Image 2 - emotional and relaxing -
DYEAR=2001
DGENRE=New Age
TTITLE0=??????????/???????????????
TTITLE1=???/NS2000[?????????????????????????????]
TTITLE2=???/???[???????CM?]
TTITLE3=??????????/?????????[????CIVIC?CM?]
TTITLE4=????/???????????????[JR????????????CM? ???????????]
TTITLE5=?? Featuring ?????/?????[?????????????????????]
TTITLE6=??2001/??????[???????????????????????????]
TTITLE7=??????/?????????????????[???????????CM?]
TTITLE8=?????/????[NHK??????????]
TTITLE9=??????????/???????????????
TTITLE10=???/????[NHK????????????????]
TTITLE11=????/???[2001 MIX]
TTITLE12=??????????????????????/?????????[????????????????????]
TTITLE13=???????????/???????????????????[??????????????????]
TTITLE14=?????/????????????[?????????????????????]
TTITLE15=Arico/Letters(???????????)[??????????????????????]
TTITLE16=???/???[?????/?????????????????????]
TTITLE17=???? Featuring ??????????/?????????????[NHK??????? ????????????]
TTITLE18=???? Featuring ????????/?????????[NHK???????????????????:??????????????]
TTITLE19=?????????/????????[MBS/TBS???????????????????]
TTITLE20=???????????/?????????????[??????????????????????]
EXTD=YEAR: 2001
EXTT0=
EXTT1=
EXTT2=
EXTT3=
EXTT4=
EXTT5=
EXTT6=
EXTT7=
EXTT8=
EXTT9=
EXTT10=
EXTT11=
EXTT12=
EXTT13=
EXTT14=
EXTT15=
EXTT16=
EXTT17=
EXTT18=
EXTT19=
EXTT20=
PLAYORDER=
